<svg xmlns="http://www.w3.org/2000/svg" viewBox="0 0 2133.33 533.73"><defs><style>
      .cls-1 {
        fill: #8f3b24;
      }
    </style></defs><title>Asset 1@500x</title><g id="Layer_2" data-name="Layer 2"><g id="Layer_1-2" data-name="Layer 1"><g><path class="cls-1" d="M731.08,532.21q0,1.52-1.61,1.52a1.38,1.38,0,0,1-1.48-1.2L715.69,477l-18.07,42.11a1.61,1.61,0,0,1-3.12,0l-18-42.12-12.35,55.5a1.38,1.38,0,0,1-1.48,1.2q-1.61,0-1.61-1.52a1.66,1.66,0,0,1,0-.4l13.34-60q.31-1.47,1.58-1.47,1,0,1.5,1.22l18.56,43.25,18.56-43.26a1.62,1.62,0,0,1,1.51-1.21q1.25,0,1.6,1.47l13.29,60A2.18,2.18,0,0,1,731.08,532.21Z"></path><path class="cls-1" d="M799.39,532.14a1.39,1.39,0,0,1-1.56,1.58H764.38a1.38,1.38,0,0,1-1.56-1.56V471.95a1.38,1.38,0,0,1,1.56-1.56h33.46a1.58,1.58,0,0,1,0,3.17H765.94v26.9h25.2a1.58,1.58,0,0,1,0,3.17h-25.2v26.94h31.89A1.39,1.39,0,0,1,799.39,532.14Z"></path><path class="cls-1" d="M884.44,502.06a31.68,31.68,0,0,1-31.67,31.67H832.69a1.38,1.38,0,0,1-1.56-1.56V471.95a1.38,1.38,0,0,1,1.56-1.56h20.07a31.68,31.68,0,0,1,31.67,31.67Zm-3.12,0a28.54,28.54,0,0,0-28.55-28.5H834.25v57h18.51a28.53,28.53,0,0,0,28.55-28.5Z"></path><path class="cls-1" d="M919.3,532.17a1.56,1.56,0,1,1-3.12,0V471.95a1.56,1.56,0,1,1,3.12,0Z"></path><path class="cls-1" d="M1005.59,523.38a1.49,1.49,0,0,1-.49,1.07q-8.88,9.28-22.39,9.28a31.67,31.67,0,0,1,0-63.34q13.52,0,22.39,9.28a1.49,1.49,0,0,1,.49,1.07,1.42,1.42,0,0,1-1.61,1.61,1.76,1.76,0,0,1-1.12-.49q-9.73-8.3-20.16-8.3a28.5,28.5,0,1,0,0,57q10.44,0,20.16-8.3a1.77,1.77,0,0,1,1.12-.49A1.42,1.42,0,0,1,1005.59,523.38Z"></path><path class="cls-1" d="M1040.45,532.17a1.56,1.56,0,1,1-3.12,0V471.95a1.56,1.56,0,1,1,3.12,0Z"></path><path class="cls-1" d="M1126.66,532.17a1.4,1.4,0,0,1-1.61,1.56,1.86,1.86,0,0,1-1.39-.8l-43.84-56.43v55.66a1.56,1.56,0,1,1-3.12,0V471.95a1.39,1.39,0,0,1,1.58-1.56,1.82,1.82,0,0,1,1.36.8l43.89,56.42V471.95a1.56,1.56,0,1,1,3.12,0Z"></path><path class="cls-1" d="M1221.78,532.21q0,1.52-1.66,1.52a1.44,1.44,0,0,1-1.34-.84l-9.6-19.22H1171l-9.6,19.23a1.44,1.44,0,0,1-1.34.84q-1.66,0-1.66-1.52,0-.54,13.92-28.55,13.87-27.84,16.24-32.16a1.79,1.79,0,0,1,1.52-1.11,1.81,1.81,0,0,1,1.56,1.12q2.36,4.33,16.24,32.16Q1221.78,531.68,1221.78,532.21Zm-14.18-21.73-17.49-35-17.54,35Z"></path><path class="cls-1" d="M1333.26,532.14a1.39,1.39,0,0,1-1.56,1.58h-33.46a1.38,1.38,0,0,1-1.56-1.56V471.95a1.38,1.38,0,0,1,1.56-1.56h33.46a1.58,1.58,0,0,1,0,3.17h-31.9v26.9H1325a1.58,1.58,0,0,1,0,3.17h-25.2v26.94h31.9A1.39,1.39,0,0,1,1333.26,532.14Z"></path><path class="cls-1" d="M1394.93,515.45a18.31,18.31,0,0,1-18.29,18.28,17.94,17.94,0,0,1-9.17-2.48,18.28,18.28,0,0,1-6.71-6.67,1.9,1.9,0,0,1-.22-.85q0-1.52,1.65-1.52a1.62,1.62,0,0,1,1.29.8q.45.71,1.47,2.13a15.17,15.17,0,1,0,11.71-24.9,14.93,14.93,0,1,1,0-29.87,14.08,14.08,0,0,1,12.89,7.41,1.5,1.5,0,0,1,.27.85q0,1.52-1.65,1.52-.58,0-2.05-1.68a16.47,16.47,0,0,0-3.39-3.19,10.81,10.81,0,0,0-6.07-1.73,11.81,11.81,0,0,0,0,23.63,18.31,18.31,0,0,1,18.29,18.28Z"></path><path class="cls-1" d="M1465.48,472a1.39,1.39,0,0,1-1.56,1.58H1445.4v58.62a1.56,1.56,0,0,1-3.12,0V473.55h-18.51a1.58,1.58,0,0,1,0-3.17h40.15A1.39,1.39,0,0,1,1465.48,472Z"></path><path class="cls-1" d="M1531.56,532.14a1.39,1.39,0,0,1-1.56,1.58h-33.46a1.38,1.38,0,0,1-1.56-1.56V471.95a1.38,1.38,0,0,1,1.56-1.56H1530a1.58,1.58,0,0,1,0,3.17h-31.9v26.9h25.2a1.58,1.58,0,0,1,0,3.17h-25.2v26.94H1530A1.39,1.39,0,0,1,1531.56,532.14Zm-10-80.23a1.56,1.56,0,0,1-.85,1.34q-1.47.89-7.32,3.79-6.24,3.12-6.82,3.12-1.52,0-1.52-1.65a1.56,1.56,0,0,1,.85-1.34q1.47-.89,7.32-3.79,6.24-3.12,6.83-3.12Q1521.52,450.27,1521.53,451.92Z"></path><path class="cls-1" d="M1602.11,472a1.39,1.39,0,0,1-1.56,1.58H1582v58.62a1.56,1.56,0,0,1-3.12,0V473.55H1560.4a1.58,1.58,0,0,1,0-3.17h40.15A1.39,1.39,0,0,1,1602.11,472Z"></path><path class="cls-1" d="M1634.74,532.17a1.56,1.56,0,1,1-3.12,0V471.95a1.56,1.56,0,1,1,3.12,0Z"></path><path class="cls-1" d="M1721,523.38a1.49,1.49,0,0,1-.49,1.07q-8.88,9.28-22.39,9.28a31.67,31.67,0,0,1,0-63.34q13.52,0,22.39,9.28a1.5,1.5,0,0,1,.49,1.07,1.42,1.42,0,0,1-1.61,1.61,1.76,1.76,0,0,1-1.12-.49q-9.73-8.3-20.16-8.3a28.5,28.5,0,1,0,0,57q10.44,0,20.16-8.3a1.76,1.76,0,0,1,1.12-.49A1.42,1.42,0,0,1,1721,523.38Z"></path><path class="cls-1" d="M1811.7,532.21q0,1.52-1.66,1.52a1.44,1.44,0,0,1-1.34-.84l-9.6-19.22h-38.18l-9.6,19.23a1.44,1.44,0,0,1-1.34.84q-1.66,0-1.66-1.52,0-.54,13.92-28.55,13.87-27.84,16.24-32.16a1.79,1.79,0,0,1,1.52-1.11,1.81,1.81,0,0,1,1.56,1.12q2.36,4.33,16.24,32.16Q1811.7,531.68,1811.7,532.21Zm-14.18-21.73-17.49-35-17.54,35Z"></path></g><path class="cls-1" d="M234.19,306.72c-6,4.2-11.15,7.88-16.61,11.19-15.64,9.48-32.13,11.05-49.59,6.47-10.33-2.71-20.31-6.55-30.59-9.41A118.29,118.29,0,0,0,93,311.39c-4.88.51-9.78.79-14.61-.51-6.61-1.78-9.27-6.12-7.61-12.78C73,289.54,78.31,282.83,84,276.42c12.6-14.31,27.43-26.13,42.56-37.6.58-.44,1.35-.69,1.61-1.9l-5-.25a224.8,224.8,0,0,1-32.68-4,44.84,44.84,0,0,1-9.73-3.12c-8.2-3.75-12.38-10.11-12.42-19.16a100.87,100.87,0,0,1,1.55-15.26,124.26,124.26,0,0,0,1.6-22c-.43-14-5.82-25.78-15.7-35.65-6.66-6.65-14.17-12.27-21.29-18.37C21.9,108.41,10.82,96.41,4.08,81-4,62.57-.05,46.23,15.55,33.5c11.63-9.5,25.06-15.87,39-21A196.65,196.65,0,0,1,161.86,3.77c32.24,6.28,61,19.77,84.71,42.88,18.76,18.25,31.37,40.21,39.07,65.13,7.48,24.24,9.37,49.09,8.26,74.28a66.42,66.42,0,0,0,.06,6.7,9.8,9.8,0,0,0,2.3,5.87c2.37-4.78,4.59-9.21,6.77-13.67,8.87-18.11,21.95-32.62,38.15-44.44,1.4-1,2.78-2,4.14-.31s.53,3.39-1.12,4.61a127.51,127.51,0,0,0-20.28,18.48c-8.43,9.63-14.62,20.63-20.5,33,5.14-3.79,9.41-7.17,13.92-10.2a246.88,246.88,0,0,1,47.33-24.59q12.51-4.94,25.37-8.86c2.12-.65,4.26-1.14,5,1.48s-1.37,3.44-3.46,4.06a279.84,279.84,0,0,0-40.08,15.16c-16.91,8.05-33,17.38-46.93,30.11-1.21,1.11-2.32,1.76-.6,3.7,7.58,8.56,6.69,18.87-1.91,26.82-4.15,3.83-9.25,6.1-14.12,8.69-8.79,4.68-12.33,11.7-11.27,21.58a78.73,78.73,0,0,1-11.41,52.43,74.59,74.59,0,0,0-10.76,31.53,48.9,48.9,0,0,1-3.11,13.69,17.47,17.47,0,0,1-3.31,5.44c-2.3,2.47-5,2.64-7.61.42a15.35,15.35,0,0,1-3.92-5.79c-5.6-13.15-8.74-26.73-6.64-41.13C230.55,316.26,232.1,311.95,234.19,306.72ZM190.05,201a96.7,96.7,0,0,1,17.74-6.2c6.66-1.64,13.41-2.63,20.24-.92,8.27,2.07,11.32,9.17,7.08,16.53a29.07,29.07,0,0,1-8.16,8.88c-8.43,6.2-18.19,9.33-28.15,11.8-18.83,4.66-38,6.08-57.39,6.1a7.21,7.21,0,0,0-4.51,1.23c-17.1,12.41-33.68,25.43-48,41.06-4.4,4.8-8.7,9.69-11.59,15.6-3,6.16-1,9.87,5.79,10.78a36.91,36.91,0,0,0,8.93-.2,121.56,121.56,0,0,1,48.43,4.17c7.77,2.32,15.45,4.94,23.16,7.47,14.69,4.83,29.26,5.48,43.69-1,9.19-4.15,17.51-9.68,25.55-15.72,20.28-15.22,35.35-34.12,42.31-58.9,3.61-12.84,8.41-25.11,18-34.88.74-.75,1.16-1.4.13-2.37-5.1-4.78-5.56-11-5.22-17.43a227.72,227.72,0,0,0-2.81-52.55c-4.2-23.41-12.48-45.2-26.37-64.64-21.05-29.47-49.95-47.67-84.39-57.15C135.22,1.83,96.17,3.49,57.83,17.33,43.65,22.44,30,28.91,18.28,38.62,6.1,48.67,2.66,62.57,8.66,77.18c5,12.27,13.22,22.3,22.52,31.53,8.11,8,17.38,14.76,25.92,22.31,13.2,11.65,20.4,26,20.27,43.79a147.33,147.33,0,0,1-1.92,22,63.12,63.12,0,0,0-1.16,13q.53,10.64,10.27,14.9a49.89,49.89,0,0,0,12,3.26,309,309,0,0,0,38.2,3.42,6,6,0,0,0,3.85-1.09C154.32,219.78,170.31,209.76,190.05,201Zm80.79,66.58c-6,10.23-13.83,18.91-22.53,26.77a29.53,29.53,0,0,0-9.1,14.59c-.61,2.26-1.39,4.48-2.12,6.71-5.18,15.76-.85,30.48,5,45,.37.94,1,2,2.27,1.92,1.13-.11,1.4-1.23,1.77-2.07a29.13,29.13,0,0,0,2.13-9.31c1.19-13.87,5.76-26.49,13-38.38C269.61,299,272.56,283.84,270.84,267.59ZM148.25,231a137.8,137.8,0,0,0,21-.84c16.24-1.85,32.4-4.08,47.35-11.31,5.54-2.68,10.57-6.06,13.68-11.61,2-3.57,1-6.2-2.82-7.53a21.14,21.14,0,0,0-5-1c-5.74-.51-11.25.77-16.65,2.48C185,207.86,166.48,219.09,148.25,231Zm133.7,8.45c5.46-3.88,11.26-5.33,15.78-9.19,5.21-4.45,7.2-11.31,4.48-16.23s-3.58-5-7.12-.74l-.83,1C288.3,221.46,284.61,229.7,281.95,239.49Z"></path><g><path class="cls-1" d="M457.38,411.07a53.89,53.89,0,0,0,23.49-5.3l-1,7.83H350.78a47.89,47.89,0,0,0,6.06-23.74V266.34a48.84,48.84,0,0,0-6.06-23.74h24.75a48.68,48.68,0,0,0-6.31,24V411.07Z"></path><path class="cls-1" d="M612,242.59h13.64A46.3,46.3,0,0,0,620,264.82v84.62a86.19,86.19,0,0,1-3.16,23.87,63.13,63.13,0,0,1-9.09,19.32,46.07,46.07,0,0,1-14,13.13q-14.15,8.09-36.37,8.08a6.51,6.51,0,0,1-2-.25q-22.23-.25-37.64-9.09A52.23,52.23,0,0,1,495,378.23q-3.79-9.34-3.79-25.26v-87.4a46.47,46.47,0,0,0-6.06-23h24.5a46.47,46.47,0,0,0-6.06,23v88.66q0,11.88,1.52,17.68,4.8,19.7,22.48,30.31,13.89,8.09,33.34,8.08,3.28,0,6.31-.25,22.73-1.26,34.61-13.39Q614.24,384,617,363.08a129,129,0,0,0,.51-17.68V264.82A46.34,46.34,0,0,0,612,242.59Z"></path><path class="cls-1" d="M658.95,390.36v-124a48.84,48.84,0,0,0-6.06-23.74h24.5a48.84,48.84,0,0,0-6.06,23.74V368.89l.25,2.27v18.94a47.4,47.4,0,0,0,6.06,23.49h-24.5A48.54,48.54,0,0,0,658.95,390.36Z"></path><path class="cls-1" d="M767.31,321.4q11.62,3.79,18.94,6.69a128.2,128.2,0,0,1,15,7.2,48,48,0,0,1,12,9,40,40,0,0,1,7.2,11.49,41.65,41.65,0,0,1,3.16,15.16q.5,19.45-10.61,31.07-13.89,13.9-41.68,13.89-26.27,0-44.46-11.11A21.49,21.49,0,0,0,714.52,401a22.81,22.81,0,0,0-9.35,2V379.75a106.45,106.45,0,0,0,22,21,74.86,74.86,0,0,0,43.45,13.39q23.24,0,35.62-13.89,9.6-10.35,8.21-25t-12.12-22.86q-10.74-8.21-40-18.57-7.58-2.78-11.62-4.29t-10.86-4.55A81.07,81.07,0,0,1,729,319.38q-3.92-2.52-9-6.44a31.43,31.43,0,0,1-7.58-8,46.92,46.92,0,0,1-4.42-9.47,35.41,35.41,0,0,1-1.89-11.75A38.71,38.71,0,0,1,709,269.24a40.56,40.56,0,0,1,8.59-13q5.81-6.06,15.91-9.47a74.38,74.38,0,0,1,23.74-3.41q10.86,0,25.26,4l.51.25a32.5,32.5,0,0,0,9.85,1.52,30.65,30.65,0,0,0,13.89-3.28l1-.51v22.48q-2.53-2.52-5.05-4.8A80.46,80.46,0,0,0,787,252.44a6.5,6.5,0,0,0-1.52-.76,66.69,66.69,0,0,0-29.3-6.57q-16.67,0-28.92,9.35T715,279.72a26.91,26.91,0,0,0,1.64,9.47,38.39,38.39,0,0,0,3.79,7.7,26.05,26.05,0,0,0,6.69,6.57q4.55,3.29,8,5.3a77.1,77.1,0,0,0,10,4.67q6.57,2.65,10.36,3.92l11.37,3.79Z"></path><path class="cls-1" d="M996.91,413.6H973.17q5.05-7.83,1.26-16.67l-12.88-30.31h-98l-.5,1.52-12.88,28.54a16.19,16.19,0,0,0,1.52,16.92H837.53a81.91,81.91,0,0,0,10.36-17.18l71.23-160.14h1.26L978,373.18l10.1,24.25A106.41,106.41,0,0,0,996.91,413.6ZM865.06,364.09h95l-1.26-3L916.08,257.24l-2-5.05-2.27,5.05L866.58,360.81Z"></path><path class="cls-1" d="M1275.78,322.66a36.85,36.85,0,0,0-6.06,20.46v54.56a21.45,21.45,0,0,0-10.1,3.54q-27.28,16.67-61.89,16.67-28.29,0-48.37-12a77.11,77.11,0,0,1-30.19-32.21q-10.36-20.46-10.36-45.34t10.36-45.09a76,76,0,0,1,30.19-32.33q20.08-11.87,48.37-11.87a144.46,144.46,0,0,1,24.25,2,148.42,148.42,0,0,1,16.92,4.55q2.52,1,5.3,2a50,50,0,0,0,20.21,4.29h1.77l-2.27,4-4.8,9.35-2.27,4.29c-.5-.67-1.1-1.43-1.77-2.27a47.88,47.88,0,0,0-9.09-9.6q-8.33-6.82-21.47-11.37-2-.76-5.56-1.77a93.8,93.8,0,0,0-24.25-3q-23.24,0-39.66,11.87-16.67,11.62-25,31.57-8.33,19.45-8.34,43.32t8.34,43.57a72.59,72.59,0,0,0,25,31.57q16.42,11.88,39.66,11.87a87.81,87.81,0,0,0,29.81-4.8q13.13-4.79,21.47-11.62a43.74,43.74,0,0,0,11.11-12.38l.25-.5V343.12a38,38,0,0,0-5.81-20.46Z"></path><path class="cls-1" d="M1426.07,242.59h13.64a46.3,46.3,0,0,0-5.56,22.23v84.62a86.19,86.19,0,0,1-3.16,23.87,63.1,63.1,0,0,1-9.09,19.32,46.07,46.07,0,0,1-14,13.13q-14.15,8.09-36.37,8.08a6.51,6.51,0,0,1-2-.25q-22.23-.25-37.64-9.09a52.23,52.23,0,0,1-22.73-26.27q-3.79-9.34-3.79-25.26v-87.4a46.47,46.47,0,0,0-6.06-23h24.5a46.47,46.47,0,0,0-6.06,23v88.66q0,11.88,1.52,17.68,4.79,19.7,22.48,30.31,13.89,8.09,33.34,8.08,3.28,0,6.31-.25,22.73-1.26,34.61-13.39,12.37-12.63,15.16-33.59a129,129,0,0,0,.5-17.68V264.82A46.34,46.34,0,0,0,1426.07,242.59Z"></path><path class="cls-1" d="M1554.39,411.07h24.5a38.43,38.43,0,0,0,19.7-5.3l-1,7.83H1467a36.83,36.83,0,0,0,6.06-20.46V263.05a36.85,36.85,0,0,0-6.06-20.46h130.59l1,7.83a38.43,38.43,0,0,0-19.7-5.3h-93.46v64.16h47.74a33.65,33.65,0,0,0,18.44-5.3v13.39a33.35,33.35,0,0,0-18.44-5.56h-47.74v99.27Z"></path><path class="cls-1" d="M1702.66,353q7.58,1.52,15.66,8a89.65,89.65,0,0,1,14.4,14.4q6.31,8,13.89,16.54a151.11,151.11,0,0,0,14.14,14.27,34,34,0,0,0,14.9,7.58q8.33,1.89,16.42-3.41-8.84,7.07-17.43,8.71a26.82,26.82,0,0,1-15.41-1.14,51.55,51.55,0,0,1-14.27-9.35,119.24,119.24,0,0,1-13-13.26q-5.56-6.69-12.88-15.41a172.09,172.09,0,0,0-12.38-13.51,48.19,48.19,0,0,0-16.67-9.85,53.63,53.63,0,0,0-17.93-3.54h-34.61v37.38a48.82,48.82,0,0,0,6.06,23.74H1619a48.82,48.82,0,0,0,6.06-23.74V266.84A48.84,48.84,0,0,0,1619,243.1h81.08a57.66,57.66,0,0,1,28.54,7.33q14.9,8.34,21.22,20a57.62,57.62,0,0,1,0,55.32q-6.32,11.62-21.22,20a56.67,56.67,0,0,1-19.7,6.57l-4.8.76Zm-12.88-2.53a67.79,67.79,0,0,0,12.12-1,53.27,53.27,0,0,0,17.68-5.81,48.24,48.24,0,0,0,18.95-19.2,57.37,57.37,0,0,0,6.31-24.75v-3.28a57.89,57.89,0,0,0-6.31-25,48.83,48.83,0,0,0-18.95-18.94,57.84,57.84,0,0,0-17.43-6.06q-2.53-.5-5.05-.76h-1.52l-.5-.25h-57.59V350.45Z"></path><path class="cls-1" d="M1995.16,414.35a67.63,67.63,0,0,0,25-4.29,80.58,80.58,0,0,0,12.13-5.81,87.87,87.87,0,0,1-17.18,10.36q-11.12,4.8-26,4.8a82.1,82.1,0,0,1-21-3.28q-2.27-.76-4.8-1.52a74.57,74.57,0,0,1-12.38-5.56,73.4,73.4,0,0,1-8.08-5.3q-2-1.52-6.06-5.05l-.5-.51q-3.79-3-16.42-15.66-7.33-7.07-8.84-8.34l-3-2.78q-4-3.53-5.56-4.8a57,57,0,0,0-37.89-13.89h-37.13v37.38a48.82,48.82,0,0,0,6.06,23.74H1809a48.83,48.83,0,0,0,6.06-23.74V266.59a48.85,48.85,0,0,0-6.06-23.74h81.08a57.66,57.66,0,0,1,28.54,7.33q14.9,8.34,21.22,20a56.86,56.86,0,0,1,7.07,27.79,55.43,55.43,0,0,1-7.07,27.53q-6.32,11.62-21.22,20a60.73,60.73,0,0,1-19.7,6.82l-8.33,1,7.83,3.28q3.28,1.27,5.56,2.27,7.32,3.79,19.45,13.13,7.58,6.06,14.4,12.38,2.52,2.27,3,2.78a149.38,149.38,0,0,0,18.44,15.16,5.64,5.64,0,0,0,1.26.76l.76.5q3.28,2,9.22,4.93a55.21,55.21,0,0,0,12,4.29,66.5,66.5,0,0,0,12.12,1.64Zm-165.45-63.91h50a67.79,67.79,0,0,0,12.12-1,57.59,57.59,0,0,0,17.68-6.06,46.61,46.61,0,0,0,18.94-18.94,57.85,57.85,0,0,0,6.32-25v-3.28a57.37,57.37,0,0,0-6.32-24.75,48.82,48.82,0,0,0-18.94-18.94,49.88,49.88,0,0,0-17.43-6.06l-5.05-1v.25a.5.5,0,0,1-.38-.13.53.53,0,0,0-.38-.13H1885a21.43,21.43,0,0,0-2.78-.25h-54.81V350.45Zm303.62,63.15h-24.25a23.07,23.07,0,0,0,.25-19.7l-10.86-25.76-.76-1.52h-98l-.5,1.52-15.91,35.62q-1.27-.25-2.27-.51l74.51-167h1l57.59,136.91,7.83,18.69A147.26,147.26,0,0,0,2133.33,413.6Zm-40.42-49.51h3.28l-1.26-3-42.69-103.82-2-5.05-2.27,5.05-45.21,103.82-1.26,3Z"></path></g></g></g></svg>